<svg width="1440" height="153" viewBox="0 0 1440 153" fill="none" xmlns="http://www.w3.org/2000/svg">
<mask id="path-1-outside-1_9_71" maskUnits="userSpaceOnUse" x="-87" y="0" width="1791" height="153" fill="black">
<rect fill="white" x="-87" width="1791" height="153"/>
<path d="M-41.3477 135.109L-13.0273 5.8125H3.86719L13.0469 16.8477L-17.1289 148H-35.7812L-41.3477 135.109ZM-48.8672 5.8125L-24.9414 136.086L-31.0938 148H-52.6758L-82.8516 5.8125H-48.8672ZM28.5742 135.402L52.3047 5.8125H86.1914L56.0156 148H34.5312L28.5742 135.402ZM16.0742 5.8125L45.0781 135.891L39.2188 148H20.5664L-10.293 16.6523L-0.722656 5.8125H16.0742ZM219.98 74.0742V79.8359C219.98 90.7083 218.451 100.474 215.391 109.133C212.396 117.727 208.132 125.083 202.598 131.203C197.064 137.258 190.521 141.913 182.969 145.168C175.417 148.358 167.083 149.953 157.969 149.953C148.789 149.953 140.391 148.358 132.773 145.168C125.221 141.913 118.646 137.258 113.047 131.203C107.513 125.083 103.216 117.727 100.156 109.133C97.1615 100.474 95.6641 90.7083 95.6641 79.8359V74.0742C95.6641 63.2018 97.1615 53.4362 100.156 44.7773C103.216 36.1185 107.48 28.7617 112.949 22.707C118.483 16.5872 125.026 11.9323 132.578 8.74219C140.195 5.48698 148.594 3.85938 157.773 3.85938C166.888 3.85938 175.221 5.48698 182.773 8.74219C190.391 11.9323 196.966 16.5872 202.5 22.707C208.034 28.7617 212.331 36.1185 215.391 44.7773C218.451 53.4362 219.98 63.2018 219.98 74.0742ZM185.215 79.8359V73.8789C185.215 66.8477 184.596 60.6628 183.359 55.3242C182.188 49.9206 180.43 45.3958 178.086 41.75C175.742 38.1042 172.845 35.3698 169.395 33.5469C166.009 31.6589 162.135 30.7148 157.773 30.7148C153.216 30.7148 149.245 31.6589 145.859 33.5469C142.474 35.3698 139.642 38.1042 137.363 41.75C135.085 45.3958 133.359 49.9206 132.188 55.3242C131.081 60.6628 130.527 66.8477 130.527 73.8789V79.8359C130.527 86.8021 131.081 92.987 132.188 98.3906C133.359 103.729 135.085 108.254 137.363 111.965C139.707 115.676 142.572 118.475 145.957 120.363C149.408 122.251 153.411 123.195 157.969 123.195C162.331 123.195 166.204 122.251 169.59 120.363C172.975 118.475 175.807 115.676 178.086 111.965C180.43 108.254 182.188 103.729 183.359 98.3906C184.596 92.987 185.215 86.8021 185.215 79.8359ZM237.754 5.8125H293.711C304.648 5.8125 314.154 7.4401 322.227 10.6953C330.299 13.9505 336.517 18.7682 340.879 25.1484C345.306 31.5286 347.52 39.4062 347.52 48.7812C347.52 56.9193 346.25 63.7227 343.711 69.1914C341.172 74.6602 337.624 79.1849 333.066 82.7656C328.574 86.2812 323.333 89.1784 317.344 91.457L306.113 97.8047H259.141L258.945 71.3398H293.711C298.073 71.3398 301.686 70.5586 304.551 68.9961C307.415 67.4336 309.564 65.2201 310.996 62.3555C312.493 59.4258 313.242 55.9427 313.242 51.9062C313.242 47.8047 312.493 44.2891 310.996 41.3594C309.499 38.4297 307.285 36.1836 304.355 34.6211C301.491 33.0586 297.943 32.2773 293.711 32.2773H272.031V148H237.754V5.8125ZM315.586 148L284.141 85.1094L320.469 84.9141L352.305 146.535V148H315.586ZM402.5 5.8125V148H368.223V5.8125H402.5ZM487.363 5.8125L432.285 77.8828L400.059 113.137L393.809 81.6914L414.414 50.4414L445.078 5.8125H487.363ZM446.836 148L410.117 83.9375L436.777 64.3086L487.363 148H446.836ZM643.809 121.633V148H568.027V121.633H643.809ZM580.234 5.8125V148H545.957V5.8125H580.234ZM634.043 62.2578V87.7461H568.027V62.2578H634.043ZM644.102 5.8125V32.2773H568.027V5.8125H644.102ZM687.656 5.8125L710.898 53.0781L734.141 5.8125H773.203L733.555 76.3203L774.277 148H734.824L710.898 99.8555L686.973 148H647.422L688.242 76.3203L648.496 5.8125H687.656ZM842.344 99.7578H806.992V73.293H842.344C847.161 73.293 851.068 72.4792 854.062 70.8516C857.057 69.224 859.238 66.9779 860.605 64.1133C862.038 61.1836 862.754 57.8958 862.754 54.25C862.754 50.3438 862.038 46.7305 860.605 43.4102C859.238 40.0898 857.057 37.4206 854.062 35.4023C851.068 33.319 847.161 32.2773 842.344 32.2773H819.883V148H785.605V5.8125H842.344C853.737 5.8125 863.535 7.89583 871.738 12.0625C880.007 16.2292 886.354 21.9583 890.781 29.25C895.208 36.4766 897.422 44.7448 897.422 54.0547C897.422 63.2344 895.208 71.2422 890.781 78.0781C886.354 84.9141 880.007 90.2526 871.738 94.0938C863.535 97.8698 853.737 99.7578 842.344 99.7578ZM1013.73 121.633V148H937.949V121.633H1013.73ZM950.156 5.8125V148H915.879V5.8125H950.156ZM1003.96 62.2578V87.7461H937.949V62.2578H1003.96ZM1014.02 5.8125V32.2773H937.949V5.8125H1014.02ZM1027.79 5.8125H1083.75C1094.69 5.8125 1104.19 7.4401 1112.27 10.6953C1120.34 13.9505 1126.56 18.7682 1130.92 25.1484C1135.35 31.5286 1137.56 39.4062 1137.56 48.7812C1137.56 56.9193 1136.29 63.7227 1133.75 69.1914C1131.21 74.6602 1127.66 79.1849 1123.11 82.7656C1118.61 86.2812 1113.37 89.1784 1107.38 91.457L1096.15 97.8047H1049.18L1048.98 71.3398H1083.75C1088.11 71.3398 1091.73 70.5586 1094.59 68.9961C1097.45 67.4336 1099.6 65.2201 1101.04 62.3555C1102.53 59.4258 1103.28 55.9427 1103.28 51.9062C1103.28 47.8047 1102.53 44.2891 1101.04 41.3594C1099.54 38.4297 1097.32 36.1836 1094.39 34.6211C1091.53 33.0586 1087.98 32.2773 1083.75 32.2773H1062.07V148H1027.79V5.8125ZM1105.62 148L1074.18 85.1094L1110.51 84.9141L1142.34 146.535V148H1105.62ZM1194.69 5.8125V148H1160.51V5.8125H1194.69ZM1316.66 121.633V148H1240.88V121.633H1316.66ZM1253.09 5.8125V148H1218.81V5.8125H1253.09ZM1306.89 62.2578V87.7461H1240.88V62.2578H1306.89ZM1316.95 5.8125V32.2773H1240.88V5.8125H1316.95ZM1449.47 5.8125V148H1415.29L1365 59.5234V148H1330.72V5.8125H1365L1415.29 94.2891V5.8125H1449.47ZM1552.01 99.8555H1586.19C1585.74 109.751 1583.07 118.475 1578.18 126.027C1573.3 133.579 1566.53 139.471 1557.87 143.703C1549.28 147.87 1539.12 149.953 1527.4 149.953C1517.9 149.953 1509.4 148.358 1501.91 145.168C1494.49 141.978 1488.18 137.388 1482.97 131.398C1477.83 125.409 1473.89 118.15 1471.15 109.621C1468.48 101.092 1467.15 91.4896 1467.15 80.8125V73.0977C1467.15 62.4206 1468.55 52.8177 1471.35 44.2891C1474.21 35.6953 1478.25 28.4036 1483.46 22.4141C1488.73 16.3594 1495.05 11.737 1502.4 8.54688C1509.76 5.35677 1517.93 3.76172 1526.91 3.76172C1539.28 3.76172 1549.73 5.97526 1558.26 10.4023C1566.79 14.8294 1573.4 20.9167 1578.09 28.6641C1582.77 36.3464 1585.54 45.1029 1586.39 54.9336H1552.21C1552.08 49.5951 1551.17 45.1354 1549.47 41.5547C1547.78 37.9089 1545.11 35.1745 1541.46 33.3516C1537.82 31.5286 1532.97 30.6172 1526.91 30.6172C1522.68 30.6172 1519 31.3984 1515.88 32.9609C1512.75 34.5234 1510.15 36.9974 1508.07 40.3828C1505.98 43.7682 1504.42 48.1628 1503.38 53.5664C1502.4 58.9049 1501.91 65.3503 1501.91 72.9023V80.8125C1501.91 88.3646 1502.37 94.8099 1503.28 100.148C1504.19 105.487 1505.66 109.849 1507.68 113.234C1509.69 116.62 1512.3 119.126 1515.49 120.754C1518.74 122.316 1522.71 123.098 1527.4 123.098C1532.61 123.098 1537.01 122.284 1540.59 120.656C1544.17 118.964 1546.93 116.424 1548.89 113.039C1550.84 109.589 1551.88 105.194 1552.01 99.8555ZM1700.25 121.633V148H1624.47V121.633H1700.25ZM1636.68 5.8125V148H1602.4V5.8125H1636.68ZM1690.49 62.2578V87.7461H1624.47V62.2578H1690.49ZM1700.55 5.8125V32.2773H1624.47V5.8125H1700.55Z"/>
</mask>
<path d="M-41.3477 135.109L-44.2782 134.467L-44.485 135.411L-44.1018 136.299L-41.3477 135.109ZM-13.0273 5.8125V2.8125H-15.4414L-15.9579 5.17062L-13.0273 5.8125ZM3.86719 5.8125L6.17352 3.89396L5.2739 2.8125H3.86719V5.8125ZM13.0469 16.8477L15.9705 17.5203L16.3038 16.0718L15.3532 14.9291L13.0469 16.8477ZM-17.1289 148V151H-14.7408L-14.2053 148.673L-17.1289 148ZM-35.7812 148L-38.5354 149.189L-37.7535 151H-35.7812V148ZM-48.8672 5.8125L-45.9165 5.27059L-46.368 2.8125H-48.8672V5.8125ZM-24.9414 136.086L-22.2758 137.462L-21.8056 136.552L-21.9908 135.544L-24.9414 136.086ZM-31.0938 148V151H-29.2665L-28.4282 149.376L-31.0938 148ZM-52.6758 148L-55.6104 148.623L-55.1059 151H-52.6758V148ZM-82.8516 5.8125V2.8125H-86.5551L-85.7862 6.43531L-82.8516 5.8125ZM28.5742 135.402L25.6233 134.862L25.4493 135.812L25.8622 136.685L28.5742 135.402ZM52.3047 5.8125V2.8125H49.8042L49.3538 5.27213L52.3047 5.8125ZM86.1914 5.8125L89.1261 6.43531L89.8949 2.8125H86.1914V5.8125ZM56.0156 148V151H58.4458L58.9503 148.623L56.0156 148ZM34.5312 148L31.8192 149.282L32.6314 151H34.5312V148ZM16.0742 5.8125L19.0023 5.15961L18.479 2.8125H16.0742V5.8125ZM45.0781 135.891L47.7786 137.197L48.2335 136.257L48.0062 135.238L45.0781 135.891ZM39.2188 148V151H41.0999L41.9192 149.307L39.2188 148ZM20.5664 148L17.6459 148.686L18.1896 151H20.5664V148ZM-10.293 16.6523L-12.5419 14.6668L-13.5681 15.8291L-13.2134 17.3385L-10.293 16.6523ZM-0.722656 5.8125V2.8125H-2.07593L-2.97158 3.82697L-0.722656 5.8125ZM-41.3477 135.109L-38.4171 135.751L-10.0968 6.45438L-13.0273 5.8125L-15.9579 5.17062L-44.2782 134.467L-41.3477 135.109ZM-13.0273 5.8125V8.8125H3.86719V5.8125V2.8125H-13.0273V5.8125ZM3.86719 5.8125L1.56085 7.73104L10.7405 18.7662L13.0469 16.8477L15.3532 14.9291L6.17352 3.89396L3.86719 5.8125ZM13.0469 16.8477L10.1233 16.175L-20.0525 147.327L-17.1289 148L-14.2053 148.673L15.9705 17.5203L13.0469 16.8477ZM-17.1289 148V145H-35.7812V148V151H-17.1289V148ZM-35.7812 148L-33.0271 146.811L-38.5935 133.92L-41.3477 135.109L-44.1018 136.299L-38.5354 149.189L-35.7812 148ZM-48.8672 5.8125L-51.8178 6.35441L-27.8921 136.628L-24.9414 136.086L-21.9908 135.544L-45.9165 5.27059L-48.8672 5.8125ZM-24.9414 136.086L-27.607 134.709L-33.7593 146.624L-31.0938 148L-28.4282 149.376L-22.2758 137.462L-24.9414 136.086ZM-31.0938 148V145H-52.6758V148V151H-31.0938V148ZM-52.6758 148L-49.7411 147.377L-79.9169 5.18969L-82.8516 5.8125L-85.7862 6.43531L-55.6104 148.623L-52.6758 148ZM-82.8516 5.8125V8.8125H-48.8672V5.8125V2.8125H-82.8516V5.8125ZM28.5742 135.402L31.5251 135.943L55.2556 6.35287L52.3047 5.8125L49.3538 5.27213L25.6233 134.862L28.5742 135.402ZM52.3047 5.8125V8.8125H86.1914V5.8125V2.8125H52.3047V5.8125ZM86.1914 5.8125L83.2568 5.18969L53.081 147.377L56.0156 148L58.9503 148.623L89.1261 6.43531L86.1914 5.8125ZM56.0156 148V145H34.5312V148V151H56.0156V148ZM34.5312 148L37.2433 146.718L31.2863 134.12L28.5742 135.402L25.8622 136.685L31.8192 149.282L34.5312 148ZM16.0742 5.8125L13.1461 6.46539L42.15 136.544L45.0781 135.891L48.0062 135.238L19.0023 5.15961L16.0742 5.8125ZM45.0781 135.891L42.3776 134.584L36.5183 146.693L39.2188 148L41.9192 149.307L47.7786 137.197L45.0781 135.891ZM39.2188 148V145H20.5664V148V151H39.2188V148ZM20.5664 148L23.4869 147.314L-7.37249 15.9662L-10.293 16.6523L-13.2134 17.3385L17.6459 148.686L20.5664 148ZM-10.293 16.6523L-8.04404 18.6379L1.52627 7.79803L-0.722656 5.8125L-2.97158 3.82697L-12.5419 14.6668L-10.293 16.6523ZM-0.722656 5.8125V8.8125H16.0742V5.8125V2.8125H-0.722656V5.8125ZM215.391 109.133L212.562 108.133L212.558 108.146L215.391 109.133ZM202.598 131.203L204.812 133.227L204.817 133.221L204.823 133.215L202.598 131.203ZM182.969 145.168L184.136 147.932L184.146 147.927L184.156 147.923L182.969 145.168ZM132.773 145.168L131.586 147.923L131.6 147.929L131.615 147.935L132.773 145.168ZM113.047 131.203L110.822 133.215L110.833 133.228L110.844 133.24L113.047 131.203ZM100.156 109.133L97.321 110.113L97.3255 110.126L97.3301 110.139L100.156 109.133ZM100.156 44.7773L97.3277 43.7778L97.3243 43.7872L97.321 43.7967L100.156 44.7773ZM112.949 22.707L110.724 20.6949L110.723 20.6962L112.949 22.707ZM132.578 8.74219L133.745 11.5058L133.757 11.5008L132.578 8.74219ZM182.773 8.74219L181.586 11.4972L181.6 11.5033L181.615 11.5093L182.773 8.74219ZM202.5 22.707L200.275 24.7192L200.28 24.7251L200.286 24.731L202.5 22.707ZM215.391 44.7773L218.219 43.7778L215.391 44.7773ZM183.359 55.3242L180.428 55.96L180.432 55.9808L180.437 56.0014L183.359 55.3242ZM169.395 33.5469L167.933 36.167L167.963 36.1835L167.993 36.1995L169.395 33.5469ZM145.859 33.5469L147.282 36.1883L147.301 36.1778L147.321 36.167L145.859 33.5469ZM137.363 41.75L134.819 40.16L137.363 41.75ZM132.188 55.3242L129.256 54.6884L129.253 54.7018L129.25 54.7152L132.188 55.3242ZM132.188 98.3906L129.249 98.9926L129.253 99.0132L129.257 99.0338L132.188 98.3906ZM137.363 111.965L134.807 113.535L134.817 113.551L134.827 113.567L137.363 111.965ZM145.957 120.363L144.496 122.983L144.506 122.989L144.517 122.995L145.957 120.363ZM178.086 111.965L175.549 110.363L175.539 110.379L175.529 110.395L178.086 111.965ZM183.359 98.3906L180.435 97.7212L180.432 97.7343L180.429 97.7474L183.359 98.3906ZM219.98 74.0742H216.98V79.8359H219.98H222.98V74.0742H219.98ZM219.98 79.8359H216.98C216.98 90.4289 215.49 99.8484 212.562 108.133L215.391 109.133L218.219 110.132C221.411 101.1 222.98 90.9878 222.98 79.8359H219.98ZM215.391 109.133L212.558 108.146C209.681 116.4 205.611 123.398 200.372 129.191L202.598 131.203L204.823 133.215C210.652 126.769 215.11 119.053 218.224 110.12L215.391 109.133ZM202.598 131.203L200.383 129.179C195.137 134.919 188.944 139.326 181.781 142.413L182.969 145.168L184.156 147.923C192.098 144.5 198.991 139.596 204.812 133.227L202.598 131.203ZM182.969 145.168L181.801 142.404C174.658 145.422 166.727 146.953 157.969 146.953V149.953V152.953C167.439 152.953 176.175 151.294 184.136 147.932L182.969 145.168ZM157.969 149.953V146.953C149.143 146.953 141.144 145.421 133.932 142.401L132.773 145.168L131.615 147.935C139.638 151.295 148.436 152.953 157.969 152.953V149.953ZM132.773 145.168L133.961 142.413C126.795 139.324 120.565 134.914 115.249 129.166L113.047 131.203L110.844 133.24C116.727 139.601 123.648 144.501 131.586 147.923L132.773 145.168ZM113.047 131.203L115.272 129.191C110.029 123.393 105.924 116.388 102.982 108.127L100.156 109.133L97.3301 110.139C100.508 119.065 104.997 126.773 110.822 133.215L113.047 131.203ZM100.156 109.133L102.991 108.152C100.124 99.8614 98.6641 90.4352 98.6641 79.8359H95.6641H92.6641C92.6641 90.9814 94.1989 101.086 97.321 110.113L100.156 109.133ZM95.6641 79.8359H98.6641V74.0742H95.6641H92.6641V79.8359H95.6641ZM95.6641 74.0742H98.6641C98.6641 63.4749 100.124 54.0487 102.991 45.7579L100.156 44.7773L97.321 43.7967C94.1989 52.8237 92.6641 62.9287 92.6641 74.0742H95.6641ZM100.156 44.7773L102.985 45.7769C105.929 37.4448 110.004 30.4438 115.176 24.7179L112.949 22.707L110.723 20.6962C104.957 27.0796 100.503 34.7922 97.3277 43.7778L100.156 44.7773ZM112.949 22.707L115.174 24.7192C120.417 18.9219 126.599 14.5244 133.745 11.5057L132.578 8.74219L131.411 5.97863C123.453 9.34018 116.55 14.2526 110.724 20.6949L112.949 22.707ZM132.578 8.74219L133.757 11.5008C140.963 8.4213 148.955 6.85938 157.773 6.85938V3.85938V0.859375C148.232 0.859375 139.427 2.55266 131.399 5.98354L132.578 8.74219ZM157.773 3.85938V6.85938C166.524 6.85938 174.448 8.4203 181.586 11.4972L182.773 8.74219L183.961 5.98722C175.995 2.55366 167.252 0.859375 157.773 0.859375V3.85938ZM182.773 8.74219L181.615 11.5093C188.826 14.5293 195.037 18.9266 200.275 24.7192L202.5 22.707L204.725 20.6949C198.895 14.2479 191.956 9.33528 183.932 5.97506L182.773 8.74219ZM202.5 22.707L200.286 24.731C205.517 30.4553 209.62 37.4519 212.562 45.7769L215.391 44.7773L218.219 43.7778C215.041 34.7851 210.55 27.0682 204.714 20.6831L202.5 22.707ZM215.391 44.7773L212.562 45.7769C215.49 54.0618 216.98 63.4813 216.98 74.0742H219.98H222.98C222.98 62.9224 221.411 52.8106 218.219 43.7778L215.391 44.7773ZM185.215 79.8359H188.215V73.8789H185.215H182.215V79.8359H185.215ZM185.215 73.8789H188.215C188.215 66.6803 187.582 60.2598 186.282 54.647L183.359 55.3242L180.437 56.0014C181.61 61.0657 182.215 67.015 182.215 73.8789H185.215ZM183.359 55.3242L186.291 54.6884C185.063 49.0264 183.192 44.1457 180.609 40.1277L178.086 41.75L175.562 43.3723C177.667 46.646 179.312 50.8147 180.428 55.96L183.359 55.3242ZM178.086 41.75L180.609 40.1277C178.018 36.0967 174.752 32.9843 170.796 30.8943L169.395 33.5469L167.993 36.1995C170.938 37.7553 173.466 40.1116 175.562 43.3723L178.086 41.75ZM169.395 33.5469L170.856 30.9268C166.97 28.7597 162.582 27.7148 157.773 27.7148V30.7148V33.7148C161.689 33.7148 165.048 34.558 167.933 36.167L169.395 33.5469ZM157.773 30.7148V27.7148C152.795 27.7148 148.303 28.7491 144.398 30.9268L145.859 33.5469L147.321 36.167C150.187 34.5686 153.637 33.7148 157.773 33.7148V30.7148ZM145.859 33.5469L144.437 30.9055C140.54 33.0037 137.341 36.1255 134.819 40.16L137.363 41.75L139.907 43.34C141.943 40.0828 144.408 37.7359 147.282 36.1883L145.859 33.5469ZM137.363 41.75L134.819 40.16C132.313 44.1695 130.481 49.0386 129.256 54.6884L132.188 55.3242L135.119 55.96C136.238 50.8025 137.856 46.6221 139.907 43.34L137.363 41.75ZM132.188 55.3242L129.25 54.7152C128.092 60.302 127.527 66.6985 127.527 73.8789H130.527H133.527C133.527 66.9968 134.07 61.0236 135.125 55.9332L132.188 55.3242ZM130.527 73.8789H127.527V79.8359H130.527H133.527V73.8789H130.527ZM130.527 79.8359H127.527C127.527 86.9542 128.092 93.3472 129.249 98.9926L132.188 98.3906L135.126 97.7887C134.069 92.6268 133.527 86.65 133.527 79.8359H130.527ZM132.188 98.3906L129.257 99.0338C130.483 104.62 132.314 109.476 134.807 113.535L137.363 111.965L139.92 110.395C137.855 107.032 136.235 102.838 135.118 97.7474L132.188 98.3906ZM137.363 111.965L134.827 113.567C137.402 117.645 140.617 120.82 144.496 122.983L145.957 120.363L147.418 117.743C144.526 116.13 142.012 113.707 139.9 110.363L137.363 111.965ZM145.957 120.363L144.517 122.995C148.475 125.161 152.989 126.195 157.969 126.195V123.195V120.195C153.834 120.195 150.341 119.342 147.397 117.731L145.957 120.363ZM157.969 123.195V126.195C162.777 126.195 167.165 125.15 171.051 122.983L169.59 120.363L168.129 117.743C165.244 119.352 161.884 120.195 157.969 120.195V123.195ZM169.59 120.363L171.051 122.983C174.939 120.815 178.129 117.629 180.642 113.535L178.086 111.965L175.529 110.395C173.486 113.723 171.012 116.135 168.129 117.743L169.59 120.363ZM178.086 111.965L180.622 113.567C183.191 109.499 185.061 104.632 186.29 99.0338L183.359 98.3906L180.429 97.7474C179.314 102.826 177.668 107.008 175.549 110.363L178.086 111.965ZM183.359 98.3906L186.284 99.0601C187.582 93.3893 188.215 86.9727 188.215 79.8359H185.215H182.215C182.215 86.6315 181.611 92.5847 180.435 97.7212L183.359 98.3906ZM237.754 5.8125V2.8125H234.754V5.8125H237.754ZM322.227 10.6953L321.105 13.4776L322.227 10.6953ZM340.879 25.1484L338.402 26.8416L338.408 26.8502L338.414 26.8587L340.879 25.1484ZM333.066 82.7656L334.915 85.1281L334.92 85.1246L333.066 82.7656ZM317.344 91.457L316.277 88.6531L316.065 88.7337L315.868 88.8453L317.344 91.457ZM306.113 97.8047V100.805H306.902L307.589 100.416L306.113 97.8047ZM259.141 97.8047L256.141 97.8268L256.163 100.805H259.141V97.8047ZM258.945 71.3398V68.3398H255.923L255.945 71.362L258.945 71.3398ZM310.996 62.3555L308.325 60.9901L308.319 61.002L308.313 61.0138L310.996 62.3555ZM304.355 34.6211L302.919 37.2548L302.931 37.2615L302.944 37.2682L304.355 34.6211ZM272.031 32.2773V29.2773H269.031V32.2773H272.031ZM272.031 148V151H275.031V148H272.031ZM237.754 148H234.754V151H237.754V148ZM315.586 148L312.903 149.342L313.732 151H315.586V148ZM284.141 85.1094L284.124 82.1094L279.3 82.1354L281.457 86.451L284.141 85.1094ZM320.469 84.9141L323.134 83.5371L322.29 81.9042L320.453 81.9141L320.469 84.9141ZM352.305 146.535H355.305V145.806L354.97 145.158L352.305 146.535ZM352.305 148V151H355.305V148H352.305ZM237.754 5.8125V8.8125H293.711V5.8125V2.8125H237.754V5.8125ZM293.711 5.8125V8.8125C304.359 8.8125 313.467 10.3979 321.105 13.4776L322.227 10.6953L323.348 7.91299C314.84 4.48231 304.938 2.8125 293.711 2.8125V5.8125ZM322.227 10.6953L321.105 13.4776C328.7 16.5403 334.416 21.0103 338.402 26.8416L340.879 25.1484L343.355 23.4553C338.618 16.5261 331.899 11.3607 323.348 7.91299L322.227 10.6953ZM340.879 25.1484L338.414 26.8587C342.426 32.6403 344.52 39.8887 344.52 48.7812H347.52H350.52C350.52 38.9238 348.186 30.417 343.344 23.4382L340.879 25.1484ZM347.52 48.7812H344.52C344.52 56.6274 343.293 62.9681 340.99 67.9281L343.711 69.1914L346.432 70.4547C349.207 64.4772 350.52 57.2111 350.52 48.7812H347.52ZM343.711 69.1914L340.99 67.9281C338.641 72.9862 335.384 77.1297 331.213 80.4067L333.066 82.7656L334.92 85.1246C339.864 81.2401 343.702 76.3341 346.432 70.4547L343.711 69.1914ZM333.066 82.7656L331.217 80.4031C326.99 83.7119 322.019 86.4685 316.277 88.6531L317.344 91.457L318.41 94.261C324.647 91.8883 330.159 88.8506 334.915 85.1281L333.066 82.7656ZM317.344 91.457L315.868 88.8453L304.637 95.193L306.113 97.8047L307.589 100.416L318.82 94.0687L317.344 91.457ZM306.113 97.8047V94.8047H259.141V97.8047V100.805H306.113V97.8047ZM259.141 97.8047L262.141 97.7825L261.945 71.3177L258.945 71.3398L255.945 71.362L256.141 97.8268L259.141 97.8047ZM258.945 71.3398V74.3398H293.711V71.3398V68.3398H258.945V71.3398ZM293.711 71.3398V74.3398C298.412 74.3398 302.559 73.5 305.987 71.6298L304.551 68.9961L303.114 66.3624C300.814 67.6172 297.733 68.3398 293.711 68.3398V71.3398ZM304.551 68.9961L305.987 71.6298C309.379 69.7799 311.968 67.1205 313.679 63.6971L310.996 62.3555L308.313 61.0138C307.16 63.3196 305.452 65.0873 303.114 66.3624L304.551 68.9961ZM310.996 62.3555L313.667 63.7208C315.424 60.2832 316.242 56.3114 316.242 51.9062H313.242H310.242C310.242 55.574 309.563 58.5684 308.325 60.9901L310.996 62.3555ZM313.242 51.9062H316.242C316.242 47.4446 315.428 43.4379 313.667 39.994L310.996 41.3594L308.325 42.7247C309.559 45.1402 310.242 48.1647 310.242 51.9062H313.242ZM310.996 41.3594L313.667 39.994C311.888 36.5131 309.233 33.8222 305.767 31.974L304.355 34.6211L302.944 37.2682C305.338 38.545 307.109 40.3463 308.325 42.7247L310.996 41.3594ZM304.355 34.6211L305.792 31.9874C302.375 30.1236 298.3 29.2773 293.711 29.2773V32.2773V35.2773C297.586 35.2773 300.607 35.9936 302.919 37.2548L304.355 34.6211ZM293.711 32.2773V29.2773H272.031V32.2773V35.2773H293.711V32.2773ZM272.031 32.2773H269.031V148H272.031H275.031V32.2773H272.031ZM272.031 148V145H237.754V148V151H272.031V148ZM237.754 148H240.754V5.8125H237.754H234.754V148H237.754ZM315.586 148L318.269 146.658L286.824 83.7677L284.141 85.1094L281.457 86.451L312.903 149.342L315.586 148ZM284.141 85.1094L284.157 88.1093L320.485 87.914L320.469 84.9141L320.453 81.9141L284.124 82.1094L284.141 85.1094ZM320.469 84.9141L317.803 86.2911L349.639 147.912L352.305 146.535L354.97 145.158L323.134 83.5371L320.469 84.9141ZM352.305 146.535H349.305V148H352.305H355.305V146.535H352.305ZM352.305 148V145H315.586V148V151H352.305V148ZM402.5 5.8125H405.5V2.8125H402.5V5.8125ZM402.5 148V151H405.5V148H402.5ZM368.223 148H365.223V151H368.223V148ZM368.223 5.8125V2.8125H365.223V5.8125H368.223ZM487.363 5.8125L489.747 7.63413L493.432 2.8125H487.363V5.8125ZM432.285 77.8828L434.499 79.9069L434.589 79.8094L434.669 79.7044L432.285 77.8828ZM400.059 113.137L397.116 113.722L398.272 119.537L402.273 115.161L400.059 113.137ZM393.809 81.6914L391.304 80.04L390.626 81.0682L390.866 82.2762L393.809 81.6914ZM414.414 50.4414L411.941 48.7425L411.925 48.7661L411.91 48.79L414.414 50.4414ZM445.078 5.8125V2.8125H443.5L442.606 4.1136L445.078 5.8125ZM446.836 148L444.233 149.492L445.098 151H446.836V148ZM410.117 83.9375L408.339 81.5217L406.184 83.108L407.514 85.4293L410.117 83.9375ZM436.777 64.3086L439.345 62.7567L437.645 59.9444L434.999 61.8928L436.777 64.3086ZM487.363 148V151H492.682L489.931 146.448L487.363 148ZM402.5 5.8125H399.5V148H402.5H405.5V5.8125H402.5ZM402.5 148V145H368.223V148V151H402.5V148ZM368.223 148H371.223V5.8125H368.223H365.223V148H368.223ZM368.223 5.8125V8.8125H402.5V5.8125V2.8125H368.223V5.8125ZM487.363 5.8125L484.98 3.99087L429.902 76.0612L432.285 77.8828L434.669 79.7044L489.747 7.63413L487.363 5.8125ZM432.285 77.8828L430.071 75.8587L397.844 111.113L400.059 113.137L402.273 115.161L434.499 79.9069L432.285 77.8828ZM400.059 113.137L403.001 112.552L396.751 81.1066L393.809 81.6914L390.866 82.2762L397.116 113.722L400.059 113.137ZM393.809 81.6914L396.313 83.3428L416.919 52.0928L414.414 50.4414L411.91 48.79L391.304 80.04L393.809 81.6914ZM414.414 50.4414L416.887 52.1403L447.551 7.5114L445.078 5.8125L442.606 4.1136L411.941 48.7425L414.414 50.4414ZM445.078 5.8125V8.8125H487.363V5.8125V2.8125H445.078V5.8125ZM446.836 148L449.439 146.508L412.72 82.4457L410.117 83.9375L407.514 85.4293L444.233 149.492L446.836 148ZM410.117 83.9375L411.896 86.3533L438.556 66.7244L436.777 64.3086L434.999 61.8928L408.339 81.5217L410.117 83.9375ZM436.777 64.3086L434.21 65.8604L484.796 149.552L487.363 148L489.931 146.448L439.345 62.7567L436.777 64.3086ZM487.363 148V145H446.836V148V151H487.363V148ZM643.809 121.633H646.809V118.633H643.809V121.633ZM643.809 148V151H646.809V148H643.809ZM568.027 148H565.027V151H568.027V148ZM568.027 121.633V118.633H565.027V121.633H568.027ZM580.234 5.8125H583.234V2.8125H580.234V5.8125ZM580.234 148V151H583.234V148H580.234ZM545.957 148H542.957V151H545.957V148ZM545.957 5.8125V2.8125H542.957V5.8125H545.957ZM634.043 62.2578H637.043V59.2578H634.043V62.2578ZM634.043 87.7461V90.7461H637.043V87.7461H634.043ZM568.027 87.7461H565.027V90.7461H568.027V87.7461ZM568.027 62.2578V59.2578H565.027V62.2578H568.027ZM644.102 5.8125H647.102V2.8125H644.102V5.8125ZM644.102 32.2773V35.2773H647.102V32.2773H644.102ZM568.027 32.2773H565.027V35.2773H568.027V32.2773ZM568.027 5.8125V2.8125H565.027V5.8125H568.027ZM643.809 121.633H640.809V148H643.809H646.809V121.633H643.809ZM643.809 148V145H568.027V148V151H643.809V148ZM568.027 148H571.027V121.633H568.027H565.027V148H568.027ZM568.027 121.633V124.633H643.809V121.633V118.633H568.027V121.633ZM580.234 5.8125H577.234V148H580.234H583.234V5.8125H580.234ZM580.234 148V145H545.957V148V151H580.234V148ZM545.957 148H548.957V5.8125H545.957H542.957V148H545.957ZM545.957 5.8125V8.8125H580.234V5.8125V2.8125H545.957V5.8125ZM634.043 62.2578H631.043V87.7461H634.043H637.043V62.2578H634.043ZM634.043 87.7461V84.7461H568.027V87.7461V90.7461H634.043V87.7461ZM568.027 87.7461H571.027V62.2578H568.027H565.027V87.7461H568.027ZM568.027 62.2578V65.2578H634.043V62.2578V59.2578H568.027V62.2578ZM644.102 5.8125H641.102V32.2773H644.102H647.102V5.8125H644.102ZM644.102 32.2773V29.2773H568.027V32.2773V35.2773H644.102V32.2773ZM568.027 32.2773H571.027V5.8125H568.027H565.027V32.2773H568.027ZM568.027 5.8125V8.8125H644.102V5.8125V2.8125H568.027V5.8125ZM687.656 5.8125L690.348 4.48869L689.524 2.8125H687.656V5.8125ZM710.898 53.0781L708.206 54.4019L710.898 59.8767L713.591 54.4019L710.898 53.0781ZM734.141 5.8125V2.8125H732.273L731.448 4.48869L734.141 5.8125ZM773.203 5.8125L775.818 7.28294L778.332 2.8125H773.203V5.8125ZM733.555 76.3203L730.94 74.8499L730.109 76.3279L730.946 77.8022L733.555 76.3203ZM774.277 148V151H779.432L776.886 146.518L774.277 148ZM734.824 148L732.138 149.335L732.965 151H734.824V148ZM710.898 99.8555L713.585 98.5204L710.898 93.1144L708.212 98.5204L710.898 99.8555ZM686.973 148V151H688.832L689.659 149.335L686.973 148ZM647.422 148L644.815 146.515L642.261 151H647.422V148ZM688.242 76.3203L690.849 77.8049L691.69 76.3278L690.856 74.8471L688.242 76.3203ZM648.496 5.8125V2.8125H643.361L645.883 7.28569L648.496 5.8125ZM687.656 5.8125L684.964 7.13631L708.206 54.4019L710.898 53.0781L713.591 51.7543L690.348 4.48869L687.656 5.8125ZM710.898 53.0781L713.591 54.4019L736.833 7.13631L734.141 5.8125L731.448 4.48869L708.206 51.7543L710.898 53.0781ZM734.141 5.8125V8.8125H773.203V5.8125V2.8125H734.141V5.8125ZM773.203 5.8125L770.588 4.34206L730.94 74.8499L733.555 76.3203L736.17 77.7908L775.818 7.28294L773.203 5.8125ZM733.555 76.3203L730.946 77.8022L771.669 149.482L774.277 148L776.886 146.518L736.163 74.8384L733.555 76.3203ZM774.277 148V145H734.824V148V151H774.277V148ZM734.824 148L737.511 146.665L713.585 98.5204L710.898 99.8555L708.212 101.191L732.138 149.335L734.824 148ZM710.898 99.8555L708.212 98.5204L684.286 146.665L686.973 148L689.659 149.335L713.585 101.191L710.898 99.8555ZM686.973 148V145H647.422V148V151H686.973V148ZM647.422 148L650.029 149.485L690.849 77.8049L688.242 76.3203L685.635 74.8357L644.815 146.515L647.422 148ZM688.242 76.3203L690.856 74.8471L651.109 4.33931L648.496 5.8125L645.883 7.28569L685.629 77.7935L688.242 76.3203ZM648.496 5.8125V8.8125H687.656V5.8125V2.8125H648.496V5.8125ZM806.992 99.7578H803.992V102.758H806.992V99.7578ZM806.992 73.293V70.293H803.992V73.293H806.992ZM860.605 64.1133L857.91 62.7957L857.904 62.8083L857.898 62.8211L860.605 64.1133ZM860.605 43.4102L857.831 44.5524L857.841 44.5755L857.851 44.5984L860.605 43.4102ZM854.062 35.4023L852.349 37.8651L852.368 37.8777L852.386 37.8901L854.062 35.4023ZM819.883 32.2773V29.2773H816.883V32.2773H819.883ZM819.883 148V151H822.883V148H819.883ZM785.605 148H782.605V151H785.605V148ZM785.605 5.8125V2.8125H782.605V5.8125H785.605ZM871.738 12.0625L870.38 14.7373L870.388 14.7416L871.738 12.0625ZM890.781 29.25L888.217 30.8069L888.223 30.8171L890.781 29.25ZM871.738 94.0938L872.993 96.8189L873.002 96.8145L871.738 94.0938ZM842.344 99.7578V96.7578H806.992V99.7578V102.758H842.344V99.7578ZM806.992 99.7578H809.992V73.293H806.992H803.992V99.7578H806.992ZM806.992 73.293V76.293H842.344V73.293V70.293H806.992V73.293ZM842.344 73.293V76.293C847.467 76.293 851.916 75.4324 855.495 73.4874L854.062 70.8516L852.63 68.2157C850.219 69.5259 846.856 70.293 842.344 70.293V73.293ZM854.062 70.8516L855.495 73.4874C859.002 71.5812 861.653 68.8843 863.313 65.4055L860.605 64.1133L857.898 62.8211C856.824 65.0714 855.112 66.8667 852.63 68.2157L854.062 70.8516ZM860.605 64.1133L863.301 65.4309C864.956 62.0447 865.754 58.2981 865.754 54.25H862.754H859.754C859.754 57.4935 859.119 60.3225 857.91 62.7957L860.605 64.1133ZM862.754 54.25H865.754C865.754 49.9682 864.967 45.9467 863.36 42.2219L860.605 43.4102L857.851 44.5984C859.109 47.5142 859.754 50.7193 859.754 54.25H862.754ZM860.605 43.4102L863.38 42.2679C861.786 38.3974 859.221 35.2613 855.739 32.9145L854.062 35.4023L852.386 37.8901C854.893 39.5799 856.691 41.7823 857.831 44.5524L860.605 43.4102ZM854.062 35.4023L855.776 32.9396C852.139 30.41 847.58 29.2773 842.344 29.2773V32.2773V35.2773C846.743 35.2773 849.996 36.228 852.349 37.8651L854.062 35.4023ZM842.344 32.2773V29.2773H819.883V32.2773V35.2773H842.344V32.2773ZM819.883 32.2773H816.883V148H819.883H822.883V32.2773H819.883ZM819.883 148V145H785.605V148V151H819.883V148ZM785.605 148H788.605V5.8125H785.605H782.605V148H785.605ZM785.605 5.8125V8.8125H842.344V5.8125V2.8125H785.605V5.8125ZM842.344 5.8125V8.8125C853.375 8.8125 862.686 10.8293 870.38 14.7372L871.738 12.0625L873.097 9.38776C864.384 4.96234 854.099 2.8125 842.344 2.8125V5.8125ZM871.738 12.0625L870.388 14.7416C878.199 18.6777 884.106 24.0366 888.217 30.8069L890.781 29.25L893.346 27.6931C888.602 19.8801 881.814 13.7806 873.088 9.38345L871.738 12.0625ZM890.781 29.25L888.223 30.8171C892.333 37.5262 894.422 45.2416 894.422 54.0547H897.422H900.422C900.422 44.248 898.083 35.4269 893.339 27.6829L890.781 29.25ZM897.422 54.0547H894.422C894.422 62.7316 892.337 70.1571 888.263 76.4474L890.781 78.0781L893.299 79.7089C898.08 72.3272 900.422 63.7372 900.422 54.0547H897.422ZM890.781 78.0781L888.263 76.4474C884.179 82.754 878.293 87.7406 870.474 91.373L871.738 94.0938L873.002 96.8145C881.72 92.7646 888.529 87.0741 893.299 79.7089L890.781 78.0781ZM871.738 94.0938L870.484 91.3686C862.763 94.9227 853.414 96.7578 842.344 96.7578V99.7578V102.758C854.06 102.758 864.307 100.817 872.993 96.8189L871.738 94.0938ZM1013.73 121.633H1016.73V118.633H1013.73V121.633ZM1013.73 148V151H1016.73V148H1013.73ZM937.949 148H934.949V151H937.949V148ZM937.949 121.633V118.633H934.949V121.633H937.949ZM950.156 5.8125H953.156V2.8125H950.156V5.8125ZM950.156 148V151H953.156V148H950.156ZM915.879 148H912.879V151H915.879V148ZM915.879 5.8125V2.8125H912.879V5.8125H915.879ZM1003.96 62.2578H1006.96V59.2578H1003.96V62.2578ZM1003.96 87.7461V90.7461H1006.96V87.7461H1003.96ZM937.949 87.7461H934.949V90.7461H937.949V87.7461ZM937.949 62.2578V59.2578H934.949V62.2578H937.949ZM1014.02 5.8125H1017.02V2.8125H1014.02V5.8125ZM1014.02 32.2773V35.2773H1017.02V32.2773H1014.02ZM937.949 32.2773H934.949V35.2773H937.949V32.2773ZM937.949 5.8125V2.8125H934.949V5.8125H937.949ZM1013.73 121.633H1010.73V148H1013.73H1016.73V121.633H1013.73ZM1013.73 148V145H937.949V148V151H1013.73V148ZM937.949 148H940.949V121.633H937.949H934.949V148H937.949ZM937.949 121.633V124.633H1013.73V121.633V118.633H937.949V121.633ZM950.156 5.8125H947.156V148H950.156H953.156V5.8125H950.156ZM950.156 148V145H915.879V148V151H950.156V148ZM915.879 148H918.879V5.8125H915.879H912.879V148H915.879ZM915.879 5.8125V8.8125H950.156V5.8125V2.8125H915.879V5.8125ZM1003.96 62.2578H1000.96V87.7461H1003.96H1006.96V62.2578H1003.96ZM1003.96 87.7461V84.7461H937.949V87.7461V90.7461H1003.96V87.7461ZM937.949 87.7461H940.949V62.2578H937.949H934.949V87.7461H937.949ZM937.949 62.2578V65.2578H1003.96V62.2578V59.2578H937.949V62.2578ZM1014.02 5.8125H1011.02V32.2773H1014.02H1017.02V5.8125H1014.02ZM1014.02 32.2773V29.2773H937.949V32.2773V35.2773H1014.02V32.2773ZM937.949 32.2773H940.949V5.8125H937.949H934.949V32.2773H937.949ZM937.949 5.8125V8.8125H1014.02V5.8125V2.8125H937.949V5.8125ZM1027.79 5.8125V2.8125H1024.79V5.8125H1027.79ZM1112.27 10.6953L1111.14 13.4776L1112.27 10.6953ZM1130.92 25.1484L1128.44 26.8416L1128.45 26.8502L1128.45 26.8587L1130.92 25.1484ZM1123.11 82.7656L1124.95 85.1281L1124.96 85.1246L1123.11 82.7656ZM1107.38 91.457L1106.32 88.6531L1106.1 88.7337L1105.91 88.8453L1107.38 91.457ZM1096.15 97.8047V100.805H1096.94L1097.63 100.416L1096.15 97.8047ZM1049.18 97.8047L1046.18 97.8268L1046.2 100.805H1049.18V97.8047ZM1048.98 71.3398V68.3398H1045.96L1045.98 71.362L1048.98 71.3398ZM1101.04 62.3555L1098.36 60.9901L1098.36 61.002L1098.35 61.0138L1101.04 62.3555ZM1094.39 34.6211L1092.96 37.2548L1092.97 37.2615L1092.98 37.2682L1094.39 34.6211ZM1062.07 32.2773V29.2773H1059.07V32.2773H1062.07ZM1062.07 148V151H1065.07V148H1062.07ZM1027.79 148H1024.79V151H1027.79V148ZM1105.62 148L1102.94 149.342L1103.77 151H1105.62V148ZM1074.18 85.1094L1074.16 82.1094L1069.34 82.1354L1071.5 86.451L1074.18 85.1094ZM1110.51 84.9141L1113.17 83.5371L1112.33 81.9042L1110.49 81.9141L1110.51 84.9141ZM1142.34 146.535H1145.34V145.806L1145.01 145.158L1142.34 146.535ZM1142.34 148V151H1145.34V148H1142.34ZM1027.79 5.8125V8.8125H1083.75V5.8125V2.8125H1027.79V5.8125ZM1083.75 5.8125V8.8125C1094.4 8.8125 1103.51 10.3979 1111.14 13.4776L1112.27 10.6953L1113.39 7.91299C1104.88 4.48231 1094.98 2.8125 1083.75 2.8125V5.8125ZM1112.27 10.6953L1111.14 13.4776C1118.74 16.5403 1124.45 21.0103 1128.44 26.8416L1130.92 25.1484L1133.39 23.4553C1128.66 16.5261 1121.94 11.3607 1113.39 7.91299L1112.27 10.6953ZM1130.92 25.1484L1128.45 26.8587C1132.46 32.6403 1134.56 39.8887 1134.56 48.7812H1137.56H1140.56C1140.56 38.9238 1138.23 30.417 1133.38 23.4382L1130.92 25.1484ZM1137.56 48.7812H1134.56C1134.56 56.6274 1133.33 62.9681 1131.03 67.9281L1133.75 69.1914L1136.47 70.4547C1139.25 64.4772 1140.56 57.2111 1140.56 48.7812H1137.56ZM1133.75 69.1914L1131.03 67.9281C1128.68 72.9862 1125.42 77.1297 1121.25 80.4067L1123.11 82.7656L1124.96 85.1246C1129.9 81.2401 1133.74 76.3341 1136.47 70.4547L1133.75 69.1914ZM1123.11 82.7656L1121.26 80.4031C1117.03 83.7119 1112.06 86.4685 1106.32 88.6531L1107.38 91.457L1108.45 94.261C1114.69 91.8883 1120.2 88.8506 1124.95 85.1281L1123.11 82.7656ZM1107.38 91.457L1105.91 88.8453L1094.68 95.193L1096.15 97.8047L1097.63 100.416L1108.86 94.0687L1107.38 91.457ZM1096.15 97.8047V94.8047H1049.18V97.8047V100.805H1096.15V97.8047ZM1049.18 97.8047L1052.18 97.7825L1051.98 71.3177L1048.98 71.3398L1045.98 71.362L1046.18 97.8268L1049.18 97.8047ZM1048.98 71.3398V74.3398H1083.75V71.3398V68.3398H1048.98V71.3398ZM1083.75 71.3398V74.3398C1088.45 74.3398 1092.6 73.5 1096.03 71.6298L1094.59 68.9961L1093.15 66.3624C1090.85 67.6172 1087.77 68.3398 1083.75 68.3398V71.3398ZM1094.59 68.9961L1096.03 71.6298C1099.42 69.7799 1102.01 67.1205 1103.72 63.6971L1101.04 62.3555L1098.35 61.0138C1097.2 63.3196 1095.49 65.0873 1093.15 66.3624L1094.59 68.9961ZM1101.04 62.3555L1103.71 63.7208C1105.46 60.2832 1106.28 56.3114 1106.28 51.9062H1103.28H1100.28C1100.28 55.574 1099.6 58.5684 1098.36 60.9901L1101.04 62.3555ZM1103.28 51.9062H1106.28C1106.28 47.4446 1105.47 43.4379 1103.71 39.994L1101.04 41.3594L1098.36 42.7247C1099.6 45.1402 1100.28 48.1647 1100.28 51.9062H1103.28ZM1101.04 41.3594L1103.71 39.994C1101.93 36.5131 1099.27 33.8222 1095.81 31.974L1094.39 34.6211L1092.98 37.2682C1095.38 38.545 1097.15 40.3463 1098.36 42.7247L1101.04 41.3594ZM1094.39 34.6211L1095.83 31.9874C1092.41 30.1236 1088.34 29.2773 1083.75 29.2773V32.2773V35.2773C1087.62 35.2773 1090.65 35.9936 1092.96 37.2548L1094.39 34.6211ZM1083.75 32.2773V29.2773H1062.07V32.2773V35.2773H1083.75V32.2773ZM1062.07 32.2773H1059.07V148H1062.07H1065.07V32.2773H1062.07ZM1062.07 148V145H1027.79V148V151H1062.07V148ZM1027.79 148H1030.79V5.8125H1027.79H1024.79V148H1027.79ZM1105.62 148L1108.31 146.658L1076.86 83.7677L1074.18 85.1094L1071.5 86.451L1102.94 149.342L1105.62 148ZM1074.18 85.1094L1074.2 88.1093L1110.52 87.914L1110.51 84.9141L1110.49 81.9141L1074.16 82.1094L1074.18 85.1094ZM1110.51 84.9141L1107.84 86.2911L1139.68 147.912L1142.34 146.535L1145.01 145.158L1113.17 83.5371L1110.51 84.9141ZM1142.34 146.535H1139.34V148H1142.34H1145.34V146.535H1142.34ZM1142.34 148V145H1105.62V148V151H1142.34V148ZM1194.69 5.8125H1197.69V2.8125H1194.69V5.8125ZM1194.69 148V151H1197.69V148H1194.69ZM1160.51 148H1157.51V151H1160.51V148ZM1160.51 5.8125V2.8125H1157.51V5.8125H1160.51ZM1194.69 5.8125H1191.69V148H1194.69H1197.69V5.8125H1194.69ZM1194.69 148V145H1160.51V148V151H1194.69V148ZM1160.51 148H1163.51V5.8125H1160.51H1157.51V148H1160.51ZM1160.51 5.8125V8.8125H1194.69V5.8125V2.8125H1160.51V5.8125ZM1316.66 121.633H1319.66V118.633H1316.66V121.633ZM1316.66 148V151H1319.66V148H1316.66ZM1240.88 148H1237.88V151H1240.88V148ZM1240.88 121.633V118.633H1237.88V121.633H1240.88ZM1253.09 5.8125H1256.09V2.8125H1253.09V5.8125ZM1253.09 148V151H1256.09V148H1253.09ZM1218.81 148H1215.81V151H1218.81V148ZM1218.81 5.8125V2.8125H1215.81V5.8125H1218.81ZM1306.89 62.2578H1309.89V59.2578H1306.89V62.2578ZM1306.89 87.7461V90.7461H1309.89V87.7461H1306.89ZM1240.88 87.7461H1237.88V90.7461H1240.88V87.7461ZM1240.88 62.2578V59.2578H1237.88V62.2578H1240.88ZM1316.95 5.8125H1319.95V2.8125H1316.95V5.8125ZM1316.95 32.2773V35.2773H1319.95V32.2773H1316.95ZM1240.88 32.2773H1237.88V35.2773H1240.88V32.2773ZM1240.88 5.8125V2.8125H1237.88V5.8125H1240.88ZM1316.66 121.633H1313.66V148H1316.66H1319.66V121.633H1316.66ZM1316.66 148V145H1240.88V148V151H1316.66V148ZM1240.88 148H1243.88V121.633H1240.88H1237.88V148H1240.88ZM1240.88 121.633V124.633H1316.66V121.633V118.633H1240.88V121.633ZM1253.09 5.8125H1250.09V148H1253.09H1256.09V5.8125H1253.09ZM1253.09 148V145H1218.81V148V151H1253.09V148ZM1218.81 148H1221.81V5.8125H1218.81H1215.81V148H1218.81ZM1218.81 5.8125V8.8125H1253.09V5.8125V2.8125H1218.81V5.8125ZM1306.89 62.2578H1303.89V87.7461H1306.89H1309.89V62.2578H1306.89ZM1306.89 87.7461V84.7461H1240.88V87.7461V90.7461H1306.89V87.7461ZM1240.88 87.7461H1243.88V62.2578H1240.88H1237.88V87.7461H1240.88ZM1240.88 62.2578V65.2578H1306.89V62.2578V59.2578H1240.88V62.2578ZM1316.95 5.8125H1313.95V32.2773H1316.95H1319.95V5.8125H1316.95ZM1316.95 32.2773V29.2773H1240.88V32.2773V35.2773H1316.95V32.2773ZM1240.88 32.2773H1243.88V5.8125H1240.88H1237.88V32.2773H1240.88ZM1240.88 5.8125V8.8125H1316.95V5.8125V2.8125H1240.88V5.8125ZM1449.47 5.8125H1452.47V2.8125H1449.47V5.8125ZM1449.47 148V151H1452.47V148H1449.47ZM1415.29 148L1412.68 149.483L1413.55 151H1415.29V148ZM1365 59.5234L1367.61 58.0409L1362 48.175V59.5234H1365ZM1365 148V151H1368V148H1365ZM1330.72 148H1327.72V151H1330.72V148ZM1330.72 5.8125V2.8125H1327.72V5.8125H1330.72ZM1365 5.8125L1367.61 4.32998L1366.75 2.8125H1365V5.8125ZM1415.29 94.2891L1412.68 95.7716L1418.29 105.637V94.2891H1415.29ZM1415.29 5.8125V2.8125H1412.29V5.8125H1415.29ZM1449.47 5.8125H1446.47V148H1449.47H1452.47V5.8125H1449.47ZM1449.47 148V145H1415.29V148V151H1449.47V148ZM1415.29 148L1417.9 146.517L1367.61 58.0409L1365 59.5234L1362.39 61.006L1412.68 149.483L1415.29 148ZM1365 59.5234H1362V148H1365H1368V59.5234H1365ZM1365 148V145H1330.72V148V151H1365V148ZM1330.72 148H1333.72V5.8125H1330.72H1327.72V148H1330.72ZM1330.72 5.8125V8.8125H1365V5.8125V2.8125H1330.72V5.8125ZM1365 5.8125L1362.39 7.29502L1412.68 95.7716L1415.29 94.2891L1417.9 92.8065L1367.61 4.32998L1365 5.8125ZM1415.29 94.2891H1418.29V5.8125H1415.29H1412.29V94.2891H1415.29ZM1415.29 5.8125V8.8125H1449.47V5.8125V2.8125H1415.29V5.8125ZM1552.01 99.8555V96.8555H1549.08L1549.01 99.7823L1552.01 99.8555ZM1586.19 99.8555L1589.19 99.9935L1589.33 96.8555H1586.19V99.8555ZM1557.87 143.703L1559.18 146.403L1559.19 146.398L1557.87 143.703ZM1501.91 145.168L1500.73 147.924L1500.74 147.928L1501.91 145.168ZM1482.97 131.398L1480.69 133.353L1480.7 133.36L1480.7 133.367L1482.97 131.398ZM1471.15 109.621L1468.29 110.517L1468.29 110.527L1468.3 110.537L1471.15 109.621ZM1471.35 44.2891L1468.5 43.3404L1468.5 43.3534L1471.35 44.2891ZM1483.46 22.4141L1481.19 20.4437L1481.19 20.4455L1483.46 22.4141ZM1578.09 28.6641L1575.52 30.2171L1575.53 30.2267L1578.09 28.6641ZM1586.39 54.9336V57.9336H1589.66L1589.38 54.6763L1586.39 54.9336ZM1552.21 54.9336L1549.21 55.0067L1549.28 57.9336H1552.21V54.9336ZM1549.47 41.5547L1546.75 42.818L1546.76 42.8274L1546.76 42.8368L1549.47 41.5547ZM1503.38 53.5664L1500.43 52.9985L1500.43 53.0126L1500.43 53.0266L1503.38 53.5664ZM1507.68 113.234L1505.1 114.771L1507.68 113.234ZM1515.49 120.754L1514.12 123.426L1514.16 123.443L1514.19 123.458L1515.49 120.754ZM1540.59 120.656L1541.83 123.387L1541.85 123.378L1541.87 123.368L1540.59 120.656ZM1548.89 113.039L1551.49 114.538L1551.49 114.528L1551.5 114.517L1548.89 113.039ZM1552.01 99.8555V102.855H1586.19V99.8555V96.8555H1552.01V99.8555ZM1586.19 99.8555L1583.19 99.7175C1582.76 109.138 1580.23 117.337 1575.66 124.398L1578.18 126.027L1580.7 127.656C1585.9 119.614 1588.71 110.364 1589.19 99.9935L1586.19 99.8555ZM1578.18 126.027L1575.66 124.398C1571.1 131.459 1564.76 136.998 1556.55 141.008L1557.87 143.703L1559.19 146.398C1568.3 141.945 1575.5 135.699 1580.7 127.656L1578.18 126.027ZM1557.87 143.703L1556.56 141.004C1548.46 144.933 1538.77 146.953 1527.4 146.953V149.953V152.953C1539.47 152.953 1550.1 150.807 1559.18 146.403L1557.87 143.703ZM1527.4 149.953V146.953C1518.23 146.953 1510.15 145.415 1503.09 142.408L1501.91 145.168L1500.74 147.928C1508.65 151.301 1517.56 152.953 1527.4 152.953V149.953ZM1501.91 145.168L1503.1 142.412C1496.08 139.397 1490.14 135.073 1485.23 129.43L1482.97 131.398L1480.7 133.367C1486.21 139.703 1492.9 144.559 1500.73 147.924L1501.91 145.168ZM1482.97 131.398L1485.24 129.444C1480.4 123.797 1476.64 116.903 1474.01 108.705L1471.15 109.621L1468.3 110.537C1471.14 119.396 1475.26 127.021 1480.69 133.353L1482.97 131.398ZM1471.15 109.621L1474.02 108.725C1471.45 100.536 1470.15 91.243 1470.15 80.8125H1467.15H1464.15C1464.15 91.7362 1465.51 101.648 1468.29 110.517L1471.15 109.621ZM1467.15 80.8125H1470.15V73.0977H1467.15H1464.15V80.8125H1467.15ZM1467.15 73.0977H1470.15C1470.15 62.6799 1471.51 53.4004 1474.2 45.2247L1471.35 44.2891L1468.5 43.3534C1465.58 52.235 1464.15 62.1612 1464.15 73.0977H1467.15ZM1471.35 44.2891L1474.19 45.2377C1476.95 36.9664 1480.81 30.0347 1485.72 24.3826L1483.46 22.4141L1481.19 20.4455C1475.69 26.7726 1471.47 34.4243 1468.5 43.3404L1471.35 44.2891ZM1483.46 22.4141L1485.72 24.3844C1490.7 18.6663 1496.65 14.3113 1503.6 11.2992L1502.4 8.54688L1501.21 5.79451C1493.44 9.16266 1486.76 14.0525 1481.19 20.4437L1483.46 22.4141ZM1502.4 8.54688L1503.6 11.2992C1510.53 8.2911 1518.29 6.76172 1526.91 6.76172V3.76172V0.761719C1517.57 0.761719 1508.99 2.42245 1501.21 5.79451L1502.4 8.54688ZM1526.91 3.76172V6.76172C1538.94 6.76172 1548.88 8.91403 1556.88 13.065L1558.26 10.4023L1559.64 7.7397C1550.58 3.03649 1539.63 0.761719 1526.91 0.761719V3.76172ZM1558.26 10.4023L1556.88 13.065C1564.95 17.2543 1571.13 22.9706 1575.52 30.2171L1578.09 28.6641L1580.65 27.1111C1575.66 18.8627 1568.63 12.4046 1559.64 7.7397L1558.26 10.4023ZM1578.09 28.6641L1575.53 30.2267C1579.95 37.4758 1582.59 45.7772 1583.4 55.1909L1586.39 54.9336L1589.38 54.6763C1588.49 44.4285 1585.6 35.217 1580.65 27.1015L1578.09 28.6641ZM1586.39 54.9336V51.9336H1552.21V54.9336V57.9336H1586.39V54.9336ZM1552.21 54.9336L1555.21 54.8604C1555.07 49.2411 1554.11 44.3392 1552.18 40.2725L1549.47 41.5547L1546.76 42.8368C1548.22 45.9316 1549.08 49.949 1549.21 55.0067L1552.21 54.9336ZM1549.47 41.5547L1552.19 40.2914C1550.21 36.0204 1547.05 32.7902 1542.81 30.6683L1541.46 33.3516L1540.12 36.0348C1543.17 37.5588 1545.35 39.7973 1546.75 42.818L1549.47 41.5547ZM1541.46 33.3516L1542.81 30.6683C1538.59 28.5607 1533.23 27.6172 1526.91 27.6172V30.6172V33.6172C1532.71 33.6172 1537.05 34.4966 1540.12 36.0348L1541.46 33.3516ZM1526.91 30.6172V27.6172C1522.31 27.6172 1518.16 28.4674 1514.54 30.2777L1515.88 32.9609L1517.22 35.6442C1519.85 34.3295 1523.05 33.6172 1526.91 33.6172V30.6172ZM1515.88 32.9609L1514.54 30.2777C1510.85 32.1233 1507.85 35.0161 1505.51 38.8105L1508.07 40.3828L1510.62 41.9551C1512.45 38.9787 1514.66 36.9236 1517.22 35.6442L1515.88 32.9609ZM1508.07 40.3828L1505.51 38.8105C1503.18 42.5981 1501.52 47.3662 1500.43 52.9985L1503.38 53.5664L1506.32 54.1343C1507.32 48.9593 1508.79 44.9384 1510.62 41.9551L1508.07 40.3828ZM1503.38 53.5664L1500.43 53.0266C1499.41 58.5971 1498.91 65.2337 1498.91 72.9023H1501.91H1504.91C1504.91 65.4668 1505.4 59.2128 1506.33 54.1062L1503.38 53.5664ZM1501.91 72.9023H1498.91V80.8125H1501.91H1504.91V72.9023H1501.91ZM1501.91 80.8125H1498.91C1498.91 88.4731 1499.38 95.0973 1500.32 100.653L1503.28 100.148L1506.24 99.6435C1505.36 94.5225 1504.91 88.256 1504.91 80.8125H1501.91ZM1503.28 100.148L1500.32 100.653C1501.28 106.229 1502.84 110.973 1505.1 114.771L1507.68 113.234L1510.25 111.698C1508.48 108.725 1507.11 104.745 1506.24 99.6435L1503.28 100.148ZM1507.68 113.234L1505.1 114.771C1507.38 118.591 1510.38 121.516 1514.12 123.426L1515.49 120.754L1516.85 118.082C1514.21 116.736 1512.01 114.649 1510.25 111.698L1507.68 113.234ZM1515.49 120.754L1514.19 123.458C1517.95 125.264 1522.39 126.098 1527.4 126.098V123.098V120.098C1523.04 120.098 1519.53 119.368 1516.79 118.049L1515.49 120.754ZM1527.4 123.098V126.098C1532.91 126.098 1537.75 125.24 1541.83 123.387L1540.59 120.656L1539.34 117.925C1536.26 119.328 1532.31 120.098 1527.4 120.098V123.098ZM1540.59 120.656L1541.87 123.368C1545.99 121.419 1549.22 118.46 1551.49 114.538L1548.89 113.039L1546.29 111.54C1544.64 114.389 1542.34 116.509 1539.3 117.944L1540.59 120.656ZM1548.89 113.039L1551.5 114.517C1553.76 110.514 1554.87 105.596 1555.01 99.9286L1552.01 99.8555L1549.01 99.7823C1548.89 104.792 1547.92 108.663 1546.28 111.561L1548.89 113.039ZM1700.25 121.633H1703.25V118.633H1700.25V121.633ZM1700.25 148V151H1703.25V148H1700.25ZM1624.47 148H1621.47V151H1624.47V148ZM1624.47 121.633V118.633H1621.47V121.633H1624.47ZM1636.68 5.8125H1639.68V2.8125H1636.68V5.8125ZM1636.68 148V151H1639.68V148H1636.68ZM1602.4 148H1599.4V151H1602.4V148ZM1602.4 5.8125V2.8125H1599.4V5.8125H1602.4ZM1690.49 62.2578H1693.49V59.2578H1690.49V62.2578ZM1690.49 87.7461V90.7461H1693.49V87.7461H1690.49ZM1624.47 87.7461H1621.47V90.7461H1624.47V87.7461ZM1624.47 62.2578V59.2578H1621.47V62.2578H1624.47ZM1700.55 5.8125H1703.55V2.8125H1700.55V5.8125ZM1700.55 32.2773V35.2773H1703.55V32.2773H1700.55ZM1624.47 32.2773H1621.47V35.2773H1624.47V32.2773ZM1624.47 5.8125V2.8125H1621.47V5.8125H1624.47ZM1700.25 121.633H1697.25V148H1700.25H1703.25V121.633H1700.25ZM1700.25 148V145H1624.47V148V151H1700.25V148ZM1624.47 148H1627.47V121.633H1624.47H1621.47V148H1624.47ZM1624.47 121.633V124.633H1700.25V121.633V118.633H1624.47V121.633ZM1636.68 5.8125H1633.68V148H1636.68H1639.68V5.8125H1636.68ZM1636.68 148V145H1602.4V148V151H1636.68V148ZM1602.4 148H1605.4V5.8125H1602.4H1599.4V148H1602.4ZM1602.4 5.8125V8.8125H1636.68V5.8125V2.8125H1602.4V5.8125ZM1690.49 62.2578H1687.49V87.7461H1690.49H1693.49V62.2578H1690.49ZM1690.49 87.7461V84.7461H1624.47V87.7461V90.7461H1690.49V87.7461ZM1624.47 87.7461H1627.47V62.2578H1624.47H1621.47V87.7461H1624.47ZM1624.47 62.2578V65.2578H1690.49V62.2578V59.2578H1624.47V62.2578ZM1700.55 5.8125H1697.55V32.2773H1700.55H1703.55V5.8125H1700.55ZM1700.55 32.2773V29.2773H1624.47V32.2773V35.2773H1700.55V32.2773ZM1624.47 32.2773H1627.47V5.8125H1624.47H1621.47V32.2773H1624.47ZM1624.47 5.8125V8.8125H1700.55V5.8125V2.8125H1624.47V5.8125Z" fill="#DDDDDD" fill-opacity="0.5" mask="url(#path-1-outside-1_9_71)"/>
</svg>
